#N canvas 316 25 1124 847 10;
#X obj 231 1112 *~;
#X obj 179 1112 *~;
#X msg 778 500 -1.5;
#X text 641 772 << set shortest buffer allowed (in ms);
#X floatatom 512 800 8 0 0 0 - - - 0;
#X obj 513 771 * 1;
#X msg 918 500 3;
#X obj 597 771 > 100;
#X text 630 829 i.e. phasor~ is a sawtooth oscillator (NB: linear!) that takes a Hz as input;
#X text 42 856 output volume;
#X obj 44 988 line~;
#X msg 44 956 \$1 50;
#X floatatom 44 923 8 0 0 0 - - - 0;
#X text 391 74 << input gain;
#X obj 321 120 *~;
#X floatatom 336 75 8 0 0 0 - - - 0;
#X floatatom 513 737 8 0 0 0 - - - 0;
#X obj 849 627 t b f;
#X obj 513 713 * 1;
#X obj 513 652 !/ 1000;
#X obj 202 1193 dac~;
#X obj 512 832 phasor~;
#X text 17 17 Dynamic Glitch Sampler;
#X floatatom 849 543 8 0 0 0 - - - 0;
#X msg 884 500 0.3;
#X msg 846 500 -0.5;
#X msg 814 500 -1;
#X obj 788 464 sel 0 1 2 3;
#X obj 788 440 random 4;
#X obj 281 744 !-~ 1;
#X obj 223 720 line~;
#X msg 223 692 \$1 20;
#X obj 255 781 *~;
#X obj 213 817 +~;
#X obj 213 781 *~;
#X text 87 445 starts recording >>;
#X floatatom 513 622 8 0 0 0 - - - 0;
#X obj 454 596 sel 2000;
#X floatatom 454 568 8 0 0 0 - - - 0;
#X obj 454 507 metro 1;
#X obj 454 534 counter;
#X obj 223 446 tgl 15 0 empty empty empty 17 7 0 10 #fcfcfc #000000 #000000 0 1;
#X msg 223 416 1;
#X msg 252 416 0;
#X obj 253 387 bng 15 250 50 0 empty empty empty 17 7 0 10 #fcfcfc #000000 #000000;
#X obj 223 387 bng 15 250 50 0 empty empty empty 17 7 0 10 #fcfcfc #000000 #000000;
#X floatatom 448 244 8 0 0 0 - - - 0;
#X obj 226 170 *~ 2;
#X text 13 143 distance of signal from 0! >>;
#X obj 226 142 abs~;
#X obj 213 103 adc~;
#X msg 448 221 0.13;
#X obj 448 197 loadbang;
#X text 507 243 << threshold detection to engage sampler. should be controlled by one PiSound knob;
#X obj 336 27 loadbang;
#X msg 336 51 1;
#X obj 253 334 edge~;
#X obj 226 194 slide~ 1000 5000;
#X text 329 193 cyclone;
#X obj 226 258 >~;
#X text 253 261 cyclone;
#X text 161 652 divides 1000 ms by sample ms to get Hz for the phasor~ >>;
#X obj 601 66 buffer~ sven 2000;
#X text 598 45 create buffer (arg: name and duration in ms);
#X obj 39 495 record~ sven 1;
#X obj 454 485 t f f;
#X text 507 530 of inlets 0-4 \, f or b to 0 "goes to the next value and outputs it" f to 2 "sets counter value with no output";
#X text 508 479 NB: there are no integers (i) in pd. first f (from right) resets the counter \, second f starts metronome;
#X text -135 691 The dollar sign numbers correspond to elements of an incoming message (number or symbol) \, so "\$1" is the 1st element \, \$2 the 2nd and so on.;
#X text 324 744 << right inlet - left;
#X obj 512 861 wave~ sven 0 2000;
#X text 893 627 f followed by b;
#X obj 353 1059 adc~;
#X text 601 109 desiderata: - change length of sample with second knob - randomly fft and remove fundamental or enhance certain partials;
#X text 282 386 << bangs when above or below threshold;
#X text 297 332 bangs left when zero to nonzero \, right when nonzero to zero (cyclone);
#X obj 513 596 float;
#X text 575 593 << counts milliseconds while above input threshold (messages in pd have no cold inlet \, so use float instead);
#X obj 44 878 loadbang;
#X msg 44 900 1;
#X connect 0 0 20 1;
#X connect 1 0 20 0;
#X connect 4 0 21 0;
#X connect 5 0 4 0;
#X connect 6 0 23 0;
#X connect 7 0 5 1;
#X connect 10 0 1 0;
#X connect 10 0 0 0;
#X connect 11 0 10 0;
#X connect 12 0 11 0;
#X connect 14 0 49 0;
#X connect 15 0 14 1;
#X connect 16 0 5 0;
#X connect 17 0 18 0;
#X connect 17 1 18 1;
#X connect 18 0 16 0;
#X connect 19 0 18 0;
#X connect 21 0 70 0;
#X connect 23 0 17 0;
#X connect 24 0 23 0;
#X connect 25 0 23 0;
#X connect 26 0 23 0;
#X connect 27 0 2 0;
#X connect 27 1 26 0;
#X connect 27 2 25 0;
#X connect 27 3 24 0;
#X connect 27 4 6 0;
#X connect 28 0 27 0;
#X connect 29 0 32 1;
#X connect 30 0 34 1;
#X connect 30 0 29 0;
#X connect 31 0 30 0;
#X connect 32 0 33 1;
#X connect 33 0 1 1;
#X connect 33 0 0 1;
#X connect 34 0 33 0;
#X connect 36 0 7 0;
#X connect 36 0 19 0;
#X connect 36 0 70 2;
#X connect 37 0 44 0;
#X connect 38 0 37 0;
#X connect 38 0 76 1;
#X connect 39 0 40 0;
#X connect 40 0 38 0;
#X connect 41 0 31 0;
#X connect 41 0 64 0;
#X connect 41 0 65 0;
#X connect 42 0 41 0;
#X connect 43 0 41 0;
#X connect 44 0 43 0;
#X connect 44 0 76 0;
#X connect 45 0 42 0;
#X connect 45 0 28 0;
#X connect 46 0 59 1;
#X connect 47 0 57 0;
#X connect 49 0 47 0;
#X connect 50 0 14 0;
#X connect 50 0 34 0;
#X connect 50 0 64 0;
#X connect 51 0 46 0;
#X connect 52 0 51 0;
#X connect 54 0 55 0;
#X connect 55 0 15 0;
#X connect 56 0 45 0;
#X connect 56 1 44 0;
#X connect 57 0 59 0;
#X connect 59 0 56 0;
#X connect 65 0 39 0;
#X connect 65 1 40 2;
#X connect 70 0 32 0;
#X connect 76 0 36 0;
#X connect 78 0 79 0;
#X connect 79 0 12 0;
